<svg xmlns="http://www.w3.org/2000/svg" height="40" style="fill: rgb(255, 255, 255)" viewBox="0 -960 960 960" width="40"><path d="M325.333-146.666h309.334l45.334-180.001H279.999l45.334 180.001Zm0 66.666q-22.667 0-40.524-14.027T261-130.333l-49.667-196.334h537.334L699-130.333q-5.952 22.279-23.809 36.306Q657.334-80 634.667-80H325.333ZM186.666-393.333h586.668v-93.334H186.666v93.334ZM264.667-878Q349-865 413.166-795.833 477.333-726.667 480-640.667q3.333-84.666 67.5-154.166t147.833-82.5q9.429-2 16.715 5.285 7.285 7.286 5.285 16.715Q706-779 647-718.833q-59 60.166-133.667 74.166v91.334h293.334q14.166 0 23.75 9.583Q840-534.167 840-520v126.667q0 27.5-19.583 47.083t-47.083 19.583H186.666q-27.5 0-47.083-19.583T120-393.333V-520q0-14.167 9.583-23.75 9.584-9.583 23.75-9.583h293.334v-91.334Q372-658.667 313-718.833q-59-60.167-70.333-136.5-2-9.334 5.2-17 7.2-7.667 16.8-5.667Z"/></svg>